<svg width="100" height="100" viewBox="0 0 100 100" fill="none" xmlns="http://www.w3.org/2000/svg">
<rect width="100" height="100" fill="#18181B"/>
<path d="M50.408 70.768C47.4213 70.768 44.6907 70.2133 42.216 69.104C39.7413 67.952 37.5653 66.416 35.688 64.496L38.696 61.04C40.1893 62.6187 41.96 63.856 44.008 64.752C46.0987 65.648 48.2533 66.096 50.472 66.096C53.2453 66.096 55.4 65.4773 56.936 64.24C58.472 62.96 59.24 61.296 59.24 59.248C59.24 57.7973 58.92 56.6453 58.28 55.792C57.6827 54.9387 56.8507 54.2133 55.784 53.616C54.76 53.0187 53.5867 52.4213 52.264 51.824L46.248 49.2C44.8827 48.6027 43.5387 47.856 42.216 46.96C40.936 46.064 39.8693 44.9333 39.016 43.568C38.1627 42.16 37.736 40.432 37.736 38.384C37.736 36.2507 38.2907 34.352 39.4 32.688C40.552 30.9813 42.1093 29.6587 44.072 28.72C46.0773 27.7387 48.36 27.248 50.92 27.248C53.48 27.248 55.8267 27.7173 57.96 28.656C60.0933 29.5947 61.8853 30.8107 63.336 32.304L60.456 35.76C59.1333 34.608 57.6827 33.6907 56.104 33.008C54.5253 32.2827 52.7973 31.92 50.92 31.92C48.5733 31.92 46.6747 32.4747 45.224 33.584C43.816 34.6933 43.112 36.1867 43.112 38.064C43.112 39.3867 43.4533 40.4747 44.136 41.328C44.8187 42.1813 45.6933 42.8853 46.76 43.44C47.8693 43.9947 48.9787 44.528 50.088 45.04L56.04 47.6C57.704 48.3253 59.176 49.1573 60.456 50.096C61.7787 51.0347 62.8027 52.208 63.528 53.616C64.296 55.024 64.68 56.752 64.68 58.8C64.68 61.0187 64.104 63.0453 62.952 64.88C61.8427 66.672 60.2 68.1013 58.024 69.168C55.8907 70.2347 53.352 70.768 50.408 70.768Z" fill="white"/>
</svg>
